<?xml version="1.0" encoding="UTF-8"?>
<svg version="1.1" xmlns="http://www.w3.org/2000/svg" width="341" height="341">
<path d="M0 0 C112.53 0 225.06 0 341 0 C341 112.53 341 225.06 341 341 C228.47 341 115.94 341 0 341 C0 228.47 0 115.94 0 0 Z " fill="#517EB4" transform="translate(0,0)"/>
<path d="M0 0 C2.33799927 0.89520761 3.82418996 2.00237542 5.72851562 3.62524414 C6.76685547 4.49838257 6.76685547 4.49838257 7.82617188 5.38916016 C8.55707031 6.01363037 9.28796875 6.63810059 10.04101562 7.28149414 C11.58104646 8.57381063 13.12271765 9.86417482 14.66601562 11.15258789 C15.79330078 12.09400635 15.79330078 12.09400635 16.94335938 13.05444336 C20.48586216 15.971071 24.15605463 18.69165849 27.84960938 21.41430664 C32.72595891 25.03128071 37.53117778 28.74068244 42.34375 32.44189453 C43.03919922 32.97548584 43.73464844 33.50907715 44.45117188 34.05883789 C45.0712915 34.53571045 45.69141113 35.01258301 46.33032227 35.50390625 C47.86298764 36.64853846 49.44937365 37.72039949 51.04101562 38.78149414 C50.35850681 43.77986751 48.29777003 48.07955747 46.29101562 52.65649414 C40.98456573 65.06819052 36.84330089 77.2132819 34.47167969 90.52563477 C34.32698242 91.29584961 34.18228516 92.06606445 34.03320312 92.85961914 C33.85313721 93.88684082 33.85313721 93.88684082 33.66943359 94.93481445 C32.88918287 97.22767245 31.9132841 98.26410744 30.04101562 99.78149414 C22.38650375 102.3329981 16.31260655 100.60540605 9.19335938 97.42602539 C3.85137301 94.63918988 -1.05768236 91.28366562 -5.95898438 87.78149414 C-3.61582183 84.72609276 -1.36179044 82.15220187 1.66601562 79.78149414 C5.39676957 76.59071774 8.41260571 73.07786784 11.41601562 69.21899414 C12.05917725 68.40591797 12.05917725 68.40591797 12.71533203 67.57641602 C15.33424424 64.12910437 16.89989265 60.95098192 18.04101562 56.78149414 C13.69373817 58.21743697 10.90127825 60.39818848 7.47851562 63.40649414 C-9.34883798 77.86688269 -9.34883798 77.86688269 -18.44335938 79.12524414 C-26.60396347 78.01013054 -35.25603412 68.43430857 -40.95898438 62.78149414 C-42.95898438 59.78149414 -42.95898438 59.78149414 -42.95898438 56.78149414 C-41.94320312 56.3084082 -40.92742187 55.83532227 -39.88085938 55.34790039 C-29.86209293 50.57479155 -19.36841011 45.31285185 -11.95898438 36.78149414 C-11.62898438 35.79149414 -11.29898438 34.80149414 -10.95898438 33.78149414 C-12.01214844 34.37317383 -13.0653125 34.96485352 -14.15039062 35.57446289 C-23.55855168 40.76558899 -32.61523989 44.83640022 -42.95898438 47.78149414 C-43.90773438 48.11922852 -44.85648438 48.45696289 -45.83398438 48.80493164 C-48.42941666 49.60413487 -50.25718884 50.06263336 -52.95898438 49.78149414 C-58.60014028 46.29869354 -63.08607102 40.15203745 -64.95898438 33.78149414 C-64.8992756 30.61692923 -64.68849919 28.80025517 -62.84570312 26.22680664 C-60.11832139 24.13750801 -57.12670051 23.667808 -53.83398438 22.96899414 C-36.76756096 19.00560879 -21.05225367 12.71397598 -6.67700195 2.58886719 C-2.46611611 -0.27507153 -2.46611611 -0.27507153 0 0 Z " fill="#FAFBFB" transform="translate(146.958984375,158.218505859375)"/>
<path d="M0 0 C3.94512164 3.28760137 4.75248827 4.49689897 5.58984375 9.58203125 C5.4210579 15.65413704 1.25672543 19.70185922 -2.4375 24.1875 C-3.92390726 26.06088934 -5.40829495 27.93588289 -6.890625 29.8125 C-7.60669922 30.7096875 -8.32277344 31.606875 -9.06054688 32.53125 C-11.40096351 35.51039061 -13.56036057 38.55276821 -15.6875 41.6875 C-19.36414491 47.09558816 -23.12628476 52.43574097 -26.9375 57.75 C-27.50621826 58.55010498 -28.07493652 59.35020996 -28.66088867 60.17456055 C-29.19431885 60.91617432 -29.72774902 61.65778809 -30.27734375 62.421875 C-30.75421631 63.08799805 -31.23108887 63.75412109 -31.72241211 64.44042969 C-33 66 -33 66 -35 67 C-41.93 61.555 -41.93 61.555 -49 56 C-48.05513355 51.27566776 -47.55530389 49.9711023 -44.75390625 46.41015625 C-44.08633301 45.55035156 -43.41875977 44.69054687 -42.73095703 43.8046875 C-42.01536621 42.89976562 -41.29977539 41.99484375 -40.5625 41.0625 C-39.09080188 39.16924713 -37.62074873 37.27471441 -36.15234375 35.37890625 C-35.43675293 34.4573877 -34.72116211 33.53586914 -33.98388672 32.58642578 C-31.44798299 29.28032634 -29.01775385 25.91045271 -26.625 22.5 C-23.36447324 17.88097739 -20.04379358 13.31548557 -16.625 8.8125 C-15.83351562 7.76707031 -15.04203125 6.72164063 -14.2265625 5.64453125 C-10.15343017 0.80679338 -6.50785505 -1.55930784 0 0 Z " fill="#F7FAFA" transform="translate(238,86)"/>
<path d="M0 0 C5.05781975 2.82754999 9.50208251 6.36324652 14 10 C14.72977051 10.58845703 15.45954102 11.17691406 16.21142578 11.78320312 C20.58241135 15.32467897 24.91494808 18.90958726 29.22436523 22.52563477 C30.76830393 23.80761549 32.33901869 25.05721449 33.9140625 26.30078125 C37.33128057 29.08447013 37.89073423 31.01660811 38.375 35.375 C37.93716093 39.60744433 36.58860406 41.68335105 34 45 C29.45720899 44.45720328 26.69983175 42.69400533 23 40.0625 C22.15296509 39.46187744 22.15296509 39.46187744 21.28881836 38.84912109 C15.0648733 34.39962579 9.01806975 29.72221429 3 25 C2.08323486 24.28263672 2.08323486 24.28263672 1.14794922 23.55078125 C-4.58964653 19.0608732 -10.3170729 14.55906465 -16 10 C-15.42562214 6.12294944 -13.57271945 3.88456423 -11 1 C-7.24381923 -0.87809038 -3.99078553 -0.91966426 0 0 Z " fill="#F7FAFA" transform="translate(171,141)"/>
<path d="M0 0 C0.99 0.495 0.99 0.495 2 1 C1.01 1.495 1.01 1.495 0 2 C0 1.34 0 0.68 0 0 Z M26 -2 C16.27024133 2.04689077 6.5603553 5.93295825 -3.94140625 7.3125 C-6.71305472 8.23813592 -7.56535128 9.49621815 -9 12 C-9.12670366 18.58859056 -6.03930969 22.21687881 -2 27 C-1.13375 28.299375 -1.13375 28.299375 -0.25 29.625 C2.47280106 31.28893398 3.22897576 31.08573393 6.3125 30.5625 C8.21821799 30.07908473 10.11338896 29.5533084 12 29 C13.71316406 28.51466797 13.71316406 28.51466797 15.4609375 28.01953125 C23.90327598 25.42665371 31.37187482 21.9177794 39.05078125 17.57421875 C42 16 42 16 44 16 C43.15807667 21.75314277 38.33256673 24.60626179 34 28 C18.28888889 39 18.28888889 39 12 39 C15.12235341 45.5162158 19.38167515 49.52698375 25 54 C25.77214844 54.61875 26.54429688 55.2375 27.33984375 55.875 C30.79035084 58.42306677 33.04538082 59.92928747 37.375 60.25 C44.54777084 57.77663074 51.33149487 54.08210805 57 49 C57.66 49.33 58.32 49.66 59 50 C53.25 55 53.25 55 51 55 C50.61908203 55.92232422 50.61908203 55.92232422 50.23046875 56.86328125 C48.15791704 60.46228374 44.76956774 61.561702 41 63 C35.06542056 64.3847352 35.06542056 64.3847352 31.75 63.1875 C31.1725 62.795625 30.595 62.40375 30 62 C29.01 61.34 28.02 60.68 27 60 C27 59.34 27 58.68 27 58 C26.01 57.67 25.02 57.34 24 57 C22.66666667 55.66666667 21.33333333 54.33333333 20 53 C18.515 52.505 18.515 52.505 17 52 C16.67 52.99 16.34 53.98 16 55 C14.515 54.505 14.515 54.505 13 54 C12.67 51.69 12.34 49.38 12 47 C10.02 46.67 8.04 46.34 6 46 C6 45.01 6 44.02 6 43 C5.34 42.34 4.68 41.68 4 41 C4.33 40.67 4.66 40.34 5 40 C4.22520264 37.00847418 4.22520264 37.00847418 3 34 C2.01 33.67 1.02 33.34 0 33 C0 32.34 0 31.68 0 31 C-0.99 31 -1.98 31 -3 31 C-3.45375 30.236875 -3.9075 29.47375 -4.375 28.6875 C-6.22718925 25.62426394 -7.91751 24.70348132 -11 23 C-12.32229189 20.35541621 -12.09677194 18.32238699 -12.0625 15.375 C-12.05347656 14.37210938 -12.04445313 13.36921875 -12.03515625 12.3359375 C-12.02355469 11.56507813 -12.01195313 10.79421875 -12 10 C-11.34 10 -10.68 10 -10 10 C-9.7834375 8.824375 -9.7834375 8.824375 -9.5625 7.625 C-9 5 -9 5 -8 3 C-8.99 2.67 -9.98 2.34 -11 2 C-9.71416016 2.03480469 -9.71416016 2.03480469 -8.40234375 2.0703125 C-2.14934049 2.16900703 3.01372945 1.95704999 9 0 C11.29445945 -0.28729938 13.58033777 -0.49238634 15.88671875 -0.65625 C18.06403688 -0.89151766 18.06403688 -0.89151766 20.01953125 -2.09375 C22.45125387 -3.20649092 23.53316261 -2.88101335 26 -2 Z " fill="#5A78A1" transform="translate(92,176)"/>
<path d="M0 0 C0 0.33 0 0.66 0 1 C-0.60328125 1.15855469 -1.2065625 1.31710938 -1.828125 1.48046875 C-7.00548973 2.99192523 -10.10263207 4.17105344 -13 9 C-13.33 9.99 -13.66 10.98 -14 12 C-13.44699219 12.24105469 -12.89398438 12.48210937 -12.32421875 12.73046875 C-9.48133971 14.28330184 -7.26777093 16.19660361 -4.8125 18.3125 C2.87779669 24.85937749 10.9427592 30.91543362 19 37 C14.46149338 37 11.6995556 34.4663704 8 32 C8.825 32.969375 9.65 33.93875 10.5 34.9375 C13 38 13 38 13 39 C13.61875 39.103125 14.2375 39.20625 14.875 39.3125 C17 40 17 40 19 43 C17.35 43 15.7 43 14 43 C14.5181036 44.9648239 14.5181036 44.9648239 16 47 C17.63703767 47.78577808 19.28362851 48.56044581 20.98046875 49.20703125 C24.43709901 50.56427679 27.69220101 52.31708472 31 54 C31.125 61.625 31.125 61.625 30 65 C29.34 65 28.68 65 28 65 C28 65.66 28 66.32 28 67 C27.34 67 26.68 67 26 67 C26.66 64.03 27.32 61.06 28 58 C27.16339844 57.41734375 26.32679688 56.8346875 25.46484375 56.234375 C17.00554708 50.29442409 8.89980101 44.01184323 0.87011719 37.50683594 C-2.19076479 35.04054827 -5.28160526 32.61280215 -8.375 30.1875 C-8.95137207 29.73536133 -9.52774414 29.28322266 -10.12158203 28.81738281 C-14.73816023 25.19930795 -19.3641715 21.59338029 -24 18 C-23.01 17.34 -22.02 16.68 -21 16 C-20.38125 16.33 -19.7625 16.66 -19.125 17 C-17.08981656 18.14193235 -17.08981656 18.14193235 -15 18 C-15.05800781 17.34773438 -15.11601562 16.69546875 -15.17578125 16.0234375 C-15.59039088 7.99185668 -15.59039088 7.99185668 -12.75 4.5 C-8.32824965 0.48022695 -6.00201726 -0.27281897 0 0 Z " fill="#57759D" transform="translate(169,139)"/>
<path d="M0 0 C1.32 0.33 2.64 0.66 4 1 C3.67 2.65 3.34 4.3 3 6 C9.435 10.95 9.435 10.95 16 16 C17.98 14.35 19.96 12.7 22 11 C21.125 15.75 21.125 15.75 20 18 C18.66666667 18.33333333 17.33333333 18.66666667 16 19 C15.67 19.66 15.34 20.32 15 21 C15.66 21 16.32 21 17 21 C17.33 20.34 17.66 19.68 18 19 C18 19.99 18 20.98 18 22 C17.34 22 16.68 22 16 22 C16 22.99 16 23.98 16 25 C16.66 25.66 17.32 26.32 18 27 C18.495 28.485 18.495 28.485 19 30 C19.99 30.66 20.98 31.32 22 32 C24.24397544 37.49773983 24.32875136 42.22047174 23 48 C21.625 51.0625 21.625 51.0625 20 53 C17 53 17 53 14 52 C14 52.66 14 53.32 14 54 C13.34 54 12.68 54 12 54 C11.896875 53.360625 11.79375 52.72125 11.6875 52.0625 C11.460625 51.381875 11.23375 50.70125 11 50 C9.515 49.505 9.515 49.505 8 49 C6.31288577 47.3540349 4.6454378 45.68762851 3 44 C2.34 43.67 1.68 43.34 1 43 C1 42.34 1 41.68 1 41 C5.07987581 42.95001025 8.8359963 45.35405482 12.66015625 47.7578125 C15.00010272 49.23445182 15.00010272 49.23445182 18 49 C20.31207614 46.17412917 20.97523462 44.19458512 21.4375 40.5625 C20.75953461 35.0419247 18.1245577 31.9911356 14.00390625 28.359375 C12.86375771 27.48044468 11.71626387 26.61097975 10.5625 25.75 C9.64803101 25.04883057 9.64803101 25.04883057 8.71508789 24.33349609 C6.81668756 22.88003716 4.90931112 21.4390857 3 20 C1.20412135 18.63856202 -0.58996983 17.27490133 -2.38110352 15.90722656 C-3.9698999 14.69561649 -5.56484621 13.49208319 -7.16015625 12.2890625 C-9.99990356 10.00007773 -12.4742392 7.62308369 -15 5 C-10.31221719 6.64705882 -10.31221719 6.64705882 -8.5625 8.625 C-6.94678764 10.33119503 -6.94678764 10.33119503 -3.8125 10.1875 C-2.884375 10.125625 -1.95625 10.06375 -1 10 C0.26035094 7.99414942 0.26035094 7.99414942 -0.5 5.5625 C-1 3 -1 3 0 0 Z " fill="#557091" transform="translate(187,136)"/>
<path d="M0 0 C0.33 0.66 0.66 1.32 1 2 C1.78375 2.165 2.5675 2.33 3.375 2.5 C7.1834711 4.6762692 7.5541665 7.43890171 8.8125 11.4921875 C9 14 9 14 7.6328125 16.19140625 C7.09398437 16.78824219 6.55515625 17.38507813 6 18 C4.72493088 20.33762672 3.8465616 22.46031519 3 25 C2.34 25.33 1.68 25.66 1 26 C0.34227572 29.02934491 0.34227572 29.02934491 0 32 C-0.66 32 -1.32 32 -2 32 C-2 32.66 -2 33.32 -2 34 C-2.78375 34.433125 -3.5675 34.86625 -4.375 35.3125 C-7.16700407 36.74634562 -7.16700407 36.74634562 -7.9375 39.375 C-9.18917513 42.46737384 -10.94282447 43.61507758 -13.54296875 45.6015625 C-16.00445239 47.96405886 -16.78835786 50.84973043 -18 54 C-18.99 54.495 -18.99 54.495 -20 55 C-19.67 53.68 -19.34 52.36 -19 51 C-19.66 51 -20.32 51 -21 51 C-19.52493793 46.72549217 -17.27537886 43.30372117 -14.625 39.6875 C-14.19525879 39.0879248 -13.76551758 38.48834961 -13.32275391 37.87060547 C-10.85305794 34.44824959 -8.30688011 31.10540345 -5.671875 27.80859375 C-4.84888916 26.76215698 -4.84888916 26.76215698 -4.00927734 25.69458008 C-2.94276161 24.34398942 -1.86030414 23.00579302 -0.76025391 21.68237305 C2.95982552 16.94522757 3.69651857 14.01538765 3 8 C1.69788858 4.87195445 1.69788858 4.87195445 -1 3 C-6.11791115 2.16099817 -8.76887801 2.49616086 -13 5.5 C-13.99 6.325 -14.98 7.15 -16 8 C-13.29927374 0.43796646 -7.05928732 -0.4868474 0 0 Z " fill="#597598" transform="translate(239,84)"/>
<path d="M0 0 C0.66 0.33 1.32 0.66 2 1 C1.88601335 2.62580966 1.75844341 4.25067157 1.625 5.875 C1.55539063 6.77992188 1.48578125 7.68484375 1.4140625 8.6171875 C1 11 1 11 -1 13 C-1.68102097 15.35866828 -1.68102097 15.35866828 -2.125 18 C-2.29257813 18.886875 -2.46015625 19.77375 -2.6328125 20.6875 C-3.05227307 22.93896407 -3.05227307 22.93896407 -3 25 C-6.85359397 28.33978144 -10.4266599 28.37709543 -15.28515625 28.23828125 C-19.6045628 27.85916787 -23.78662358 27.00403864 -28 26 C-28.33 24.68 -28.66 23.36 -29 22 C-30.65 21.67 -32.3 21.34 -34 21 C-34 20.01 -34 19.02 -34 18 C-34.99 18 -35.98 18 -37 18 C-37 17.34 -37 16.68 -37 16 C-37.78375 15.731875 -38.5675 15.46375 -39.375 15.1875 C-42 14 -42 14 -44 11 C-40.10571534 12.43098943 -36.72678788 14.28052901 -33.1875 16.4375 C-25.86481455 20.73443034 -18.76168348 24.60447346 -10 23 C-7.22439661 22.21027176 -7.22439661 22.21027176 -5 20 C-3.82389546 16.86549686 -3.29279239 13.67052524 -2.75 10.375 C-2.43499686 8.63232135 -2.11742712 6.890104 -1.796875 5.1484375 C-1.60109863 3.99093994 -1.60109863 3.99093994 -1.40136719 2.81005859 C-1 1 -1 1 0 0 Z " fill="#5B7494" transform="translate(184,235)"/>
<path d="M0 0 C1.98 0.495 1.98 0.495 4 1 C3.67 2.65 3.34 4.3 3 6 C9.435 10.95 9.435 10.95 16 16 C17.98 14.35 19.96 12.7 22 11 C21.125 15.75 21.125 15.75 20 18 C18.66666667 18.33333333 17.33333333 18.66666667 16 19 C15.67 19.66 15.34 20.32 15 21 C15.66 21 16.32 21 17 21 C17.33 20.34 17.66 19.68 18 19 C18 19.99 18 20.98 18 22 C17.34 22 16.68 22 16 22 C16 22.66 16 23.32 16 24 C11.25 23.25 11.25 23.25 9 21 C8.360625 20.87625 7.72125 20.7525 7.0625 20.625 C4.28401171 19.78303385 3.47812978 18.43891413 2 16 C2 15.34 2 14.68 2 14 C1.01 13.34 0.02 12.68 -1 12 C-0.814375 11.443125 -0.62875 10.88625 -0.4375 10.3125 C0.07628124 7.59679918 -0.44901578 5.6860481 -1 3 C-0.67 2.01 -0.34 1.02 0 0 Z " fill="#5B7EB1" transform="translate(187,136)"/>
<path d="M0 0 C0.495 0.391875 0.99 0.78375 1.5 1.1875 C4.35915236 3.26038546 7.3449468 5.03235023 10.390625 6.81640625 C10.92171875 7.20699219 11.4528125 7.59757813 12 8 C12 8.66 12 9.32 12 10 C12.70125 10.185625 13.4025 10.37125 14.125 10.5625 C18.04135028 12.52067514 20.5338864 15.40676231 23 19 C23 19.66 23 20.32 23 21 C23.66 21 24.32 21 25 21 C25 20.34 25 19.68 25 19 C26.65 18.67 28.3 18.34 30 18 C30 18.99 30 19.98 30 21 C29.030625 21.12375 28.06125 21.2475 27.0625 21.375 C26.051875 21.58125 25.04125 21.7875 24 22 C23.67 22.66 23.34 23.32 23 24 C15.98159509 21.76687117 15.98159509 21.76687117 13 20 C12.67 19.34 12.34 18.68 12 18 C11.360625 17.87625 10.72125 17.7525 10.0625 17.625 C8 17 8 17 6.75 14.9375 C6.37875 13.9784375 6.37875 13.9784375 6 13 C7.65 12.67 9.3 12.34 11 12 C10.21625 11.690625 9.4325 11.38125 8.625 11.0625 C6 10 6 10 4 9 C4 8.34 4 7.68 4 7 C3.34 6.175 2.68 5.35 2 4.5 C0 2 0 2 0 0 Z " fill="#5B7DAE" transform="translate(176,169)"/>
<path d="M0 0 C0.99 0.33 1.98 0.66 3 1 C1.57870617 6.76613511 -1.40200406 10.47683529 -5.125 14.9375 C-5.70596436 15.64390625 -6.28692871 16.3503125 -6.88549805 17.078125 C-10.87652598 21.85517217 -14.99999552 26.25377308 -20 30 C-20.66 29.67 -21.32 29.34 -22 29 C-20.40768051 24.70073737 -17.60686641 22.64994267 -14 20 C-13.01 20 -12.02 20 -11 20 C-11.33 18.68 -11.66 17.36 -12 16 C-11.360625 15.896875 -10.72125 15.79375 -10.0625 15.6875 C-9.381875 15.460625 -8.70125 15.23375 -8 15 C-7.67 14.01 -7.34 13.02 -7 12 C-6.34 12 -5.68 12 -5 12 C-5.33 10.68 -5.66 9.36 -6 8 C-7.65 8.66 -9.3 9.32 -11 10 C-7.5103248 6.40768729 -4.03355127 2.98132051 0 0 Z " fill="#587090" transform="translate(163,214)"/>
<path d="M0 0 C0.99 0.33 1.98 0.66 3 1 C2.8125 3.3125 2.8125 3.3125 2 6 C0.34467377 7.01866229 -1.32260138 8.01810813 -3 9 C-3.309375 9.78375 -3.61875 10.5675 -3.9375 11.375 C-5.18917513 14.46737384 -6.94282447 15.61507758 -9.54296875 17.6015625 C-12.00445239 19.96405886 -12.78835786 22.84973043 -14 26 C-14.66 26.33 -15.32 26.66 -16 27 C-15.67 25.68 -15.34 24.36 -15 23 C-15.66 23 -16.32 23 -17 23 C-15.43119956 18.37292005 -12.94349721 14.74442687 -10.125 10.8125 C-9.69058594 10.18408203 -9.25617188 9.55566406 -8.80859375 8.90820312 C-6.49909694 5.66589154 -4.71736854 3.49194836 -1 2 C-0.67 1.34 -0.34 0.68 0 0 Z " fill="#617EAA" transform="translate(235,112)"/>
<path d="M0 0 C0.46148437 0.35191406 0.92296875 0.70382813 1.3984375 1.06640625 C2.78694015 2.11738751 4.18209621 3.15960834 5.58203125 4.1953125 C7.24422961 5.43591935 8.88668637 6.70328157 10.51171875 7.9921875 C15.47644171 11.84604145 15.47644171 11.84604145 21.4375 13.3125 C28.55601258 10.6898901 35.3266766 7.08642788 41 2 C41.66 2.33 42.32 2.66 43 3 C37.25 8 37.25 8 35 8 C34.74605469 8.61488281 34.49210937 9.22976562 34.23046875 9.86328125 C32.15791704 13.46228374 28.76956774 14.561702 25 16 C19.06542056 17.3847352 19.06542056 17.3847352 15.75 16.1875 C14.88375 15.5996875 14.88375 15.5996875 14 15 C13.01 14.34 12.02 13.68 11 13 C11 12.34 11 11.68 11 11 C10.01 10.67 9.02 10.34 8 10 C6.29115995 8.37660195 4.62553283 6.70680947 3 5 C2.401875 4.443125 1.80375 3.88625 1.1875 3.3125 C0 2 0 2 0 0 Z " fill="#577291" transform="translate(108,223)"/>
<path d="M0 0 C2.625 0.375 2.625 0.375 5 1 C5.33 0.67 5.66 0.34 6 0 C6.53625 0.45375 7.0725 0.9075 7.625 1.375 C10.31698302 3.21688312 12.88520388 4.07971933 16 5 C15.67 6.65 15.34 8.3 15 10 C11.625 10.125 11.625 10.125 8 10 C7.34 9.34 6.68 8.68 6 8 C6.66 8 7.32 8 8 8 C8 7.01 8 6.02 8 5 C7.67 5.66 7.34 6.32 7 7 C5.3125 7.9375 5.3125 7.9375 3 8 C0.76121042 6.52207045 -1.02417562 4.84110908 -3 3 C-1.8125 1.4375 -1.8125 1.4375 0 0 Z " fill="#5C7DAE" transform="translate(158,160)"/>
<path d="M0 0 C-0.53153424 3.95107118 -2.30061905 5.55649937 -5.25 8.125 C-6.01828125 8.80820313 -6.7865625 9.49140625 -7.578125 10.1953125 C-9.99171922 11.99382948 -12.16586154 13.02513677 -15 14 C-15.12375 13.360625 -15.2475 12.72125 -15.375 12.0625 C-15.58125 11.381875 -15.7875 10.70125 -16 10 C-16.66 9.67 -17.32 9.34 -18 9 C-14.47643617 6.86275636 -10.91962581 4.80552313 -7.3125 2.8125 C-6.35988281 2.28269531 -5.40726563 1.75289062 -4.42578125 1.20703125 C-2 0 -2 0 0 0 Z " fill="#597192" transform="translate(136,192)"/>
<path d="M0 0 C1.98 0.495 1.98 0.495 4 1 C3.67 2.65 3.34 4.3 3 6 C9.435 10.95 9.435 10.95 16 16 C17.98 14.35 19.96 12.7 22 11 C21.125 15.75 21.125 15.75 20 18 C18.33499557 18.34153937 16.66821323 18.67449498 15 19 C14.34 19.66 13.68 20.32 13 21 C12.5359375 19.329375 12.5359375 19.329375 12.0625 17.625 C11.34029672 15.64496329 11.34029672 15.64496329 10 14 C7.05762133 12.78444286 4.15628514 12.32423055 1 12 C0.63597631 10.56496445 0.28413409 9.12683494 -0.0625 7.6875 C-0.25972656 6.88699219 -0.45695313 6.08648437 -0.66015625 5.26171875 C-1 3 -1 3 0 0 Z " fill="#557196" transform="translate(187,136)"/>
<path d="M0 0 C3.89428466 1.43098943 7.27321212 3.28052901 10.8125 5.4375 C18.47815986 9.94505794 25.0888516 12.40179791 34 13 C32 15 32 15 28.3046875 15.1953125 C26.82799892 15.182009 25.35137642 15.15814835 23.875 15.125 C23.12089844 15.11597656 22.36679688 15.10695313 21.58984375 15.09765625 C19.72642746 15.0740687 17.86317407 15.03819719 16 15 C15.67 13.68 15.34 12.36 15 11 C13.35 10.67 11.7 10.34 10 10 C10 9.01 10 8.02 10 7 C9.01 7 8.02 7 7 7 C7 6.34 7 5.68 7 5 C6.21625 4.731875 5.4325 4.46375 4.625 4.1875 C2 3 2 3 0 0 Z " fill="#5A7393" transform="translate(140,246)"/>
<path d="M0 0 C0.33 1.32 0.66 2.64 1 4 C0.34 4 -0.32 4 -1 4 C-1.1546875 4.9590625 -1.1546875 4.9590625 -1.3125 5.9375 C-1.539375 6.618125 -1.76625 7.29875 -2 8 C-2.99 8.33 -3.98 8.66 -5 9 C-5 9.99 -5 10.98 -5 12 C-6.98 12.66 -8.96 13.32 -11 14 C-11.99 12.35 -12.98 10.7 -14 9 C-13.4946875 8.66226563 -12.989375 8.32453125 -12.46875 7.9765625 C-11.8190625 7.53054687 -11.169375 7.08453125 -10.5 6.625 C-9.8503125 6.18414062 -9.200625 5.74328125 -8.53125 5.2890625 C-8.0259375 4.86367187 -7.520625 4.43828125 -7 4 C-7 3.34 -7 2.68 -7 2 C-2.25 0 -2.25 0 0 0 Z " fill="#5D7EAC" transform="translate(157,222)"/>
<path d="M0 0 C4.67109635 1.64119601 4.67109635 1.64119601 6.375 3.5 C8.85293053 5.78732049 11.78773435 6.1395717 15 7 C18.41911851 9.27941234 18.10118729 9.40474917 19 13 C21.95377498 15.36980013 21.95377498 15.36980013 26 15 C26.33 15.99 26.66 16.98 27 18 C30.00007271 19.70855022 30.00007271 19.70855022 33 21 C32.34 21.99 31.68 22.98 31 24 C30.55269531 23.59007812 30.10539062 23.18015625 29.64453125 22.7578125 C29.03996094 22.21898437 28.43539062 21.68015625 27.8125 21.125 C27.22082031 20.59132812 26.62914062 20.05765625 26.01953125 19.5078125 C24.04006456 17.89263154 24.04006456 17.89263154 21.55859375 17.03515625 C18.63422782 15.85201584 16.67184404 14.3267461 14.25 12.3125 C10.10270965 8.90001484 5.89402737 5.59598273 1.6171875 2.34765625 C1.08351562 1.90292969 0.54984375 1.45820313 0 1 C0 0.67 0 0.34 0 0 Z " fill="#5A7698" transform="translate(172,141)"/>
<path d="M0 0 C5.87758433 5.72687704 5.87758433 5.72687704 6.3125 10.25 C5.95012632 14.5984842 4.65067688 16.60382025 2 20 C-1.68754757 19.50168276 -3.60490662 18.89932357 -6 16 C-0.375 14.875 -0.375 14.875 3 16 C3.33 14.02 3.66 12.04 4 10 C3.01 9.67 2.02 9.34 1 9 C0.34 9.66 -0.32 10.32 -1 11 C-0.835 10.2575 -0.67 9.515 -0.5 8.75 C0.11925696 5.80993422 0.11925696 5.80993422 0 2 C0 1.34 0 0.68 0 0 Z " fill="#E5F2F7" transform="translate(203,166)"/>
<path d="M0 0 C0 0.66 0 1.32 0 2 C-0.93972656 2.36351562 -0.93972656 2.36351562 -1.8984375 2.734375 C-2.71570313 3.06953125 -3.53296875 3.4046875 -4.375 3.75 C-5.59316406 4.23726562 -5.59316406 4.23726562 -6.8359375 4.734375 C-9.37546122 6.21958382 -10.00152295 7.27258112 -11 10 C-11.165 10.886875 -11.33 11.77375 -11.5 12.6875 C-11.665 13.450625 -11.83 14.21375 -12 15 C-12.99 15.495 -12.99 15.495 -14 16 C-16.02797315 11.94405371 -16.23599782 9.37353074 -15 5 C-12.69510002 2.00217123 -10.59756145 1.44317333 -6.9375 0.8125 C-6.05964844 0.65394531 -5.18179688 0.49539062 -4.27734375 0.33203125 C-2 0 -2 0 0 0 Z " fill="#E6F3FA" transform="translate(98,181)"/>
<path d="M0 0 C0.66 0 1.32 0 2 0 C0.47050721 4.59711958 -1.99972145 7.97709536 -4.9375 11.75 C-5.38029297 12.33910156 -5.82308594 12.92820313 -6.27929688 13.53515625 C-9.62697025 17.87565675 -9.62697025 17.87565675 -13 19 C-12.43146636 15.13671116 -11.34127224 12.49974241 -9.1875 9.25 C-8.68605469 8.47140625 -8.18460938 7.6928125 -7.66796875 6.890625 C-5.76353467 4.73196905 -4.74880946 4.5314746 -2 4 C-0.71563266 2.0162233 -0.71563266 2.0162233 0 0 Z " fill="#597193" transform="translate(203,116)"/>
<path d="M0 0 C1.22257009 3.66771028 0.6341314 4.34215279 -0.9375 7.75 C-2.78547806 12.09558664 -3.1792509 15.24985124 -3 20 C-3.5206037 22.40424256 -4.23483444 24.65668046 -5 27 C-5.66 26.34 -6.32 25.68 -7 25 C-7.66 25.66 -8.32 26.32 -9 27 C-8.41209187 20.97394166 -6.64787535 15.76640756 -4.5 10.125 C-4.17902344 9.25875 -3.85804688 8.3925 -3.52734375 7.5 C-1.14773261 1.14773261 -1.14773261 1.14773261 0 0 Z " fill="#567292" transform="translate(194,207)"/>
<path d="M0 0 C-0.6496875 0.54914063 -0.6496875 0.54914063 -1.3125 1.109375 C-4.2854684 3.99976095 -5.86426769 5.9314407 -6.3984375 10.13671875 C-6.37731586 13.11134924 -6.26269149 16.03742374 -6 19 C-9.465 17.02 -9.465 17.02 -13 15 C-12.67 14.34 -12.34 13.68 -12 13 C-10.68 13 -9.36 13 -8 13 C-8.33 10.03 -8.66 7.06 -9 4 C-8.34 4 -7.68 4 -7 4 C-7 3.01 -7 2.02 -7 1 C-3.375 -1.125 -3.375 -1.125 0 0 Z " fill="#5A7DAC" transform="translate(161,140)"/>
<path d="M0 0 C0.66 0.33 1.32 0.66 2 1 C2.30347349 8.89031079 2.30347349 8.89031079 0 12 C-1.33333333 12.66666667 -2.66666667 13.33333333 -4 14 C-5.26804566 16.0335948 -5.26804566 16.0335948 -6 18 C-6.33 17.34 -6.66 16.68 -7 16 C-6.22265625 13.7578125 -6.22265625 13.7578125 -5.0625 11.125 C-3.52033258 7.62245027 -3 5.93743263 -3 2 C-2.01 2 -1.02 2 0 2 C0 1.34 0 0.68 0 0 Z " fill="#5E7DA9" transform="translate(197,204)"/>
<path d="M0 0 C0.99 0.33 1.98 0.66 3 1 C1.39692116 5.94362638 -1.48932939 9.70051116 -4.5625 13.8125 C-5.06974609 14.50537109 -5.57699219 15.19824219 -6.09960938 15.91210938 C-7.37066029 17.62997446 -8.68188551 19.31797589 -10 21 C-10.33 21 -10.66 21 -11 21 C-11 19.02 -11 17.04 -11 15 C-10.34 15 -9.68 15 -9 15 C-8.7525 14.21625 -8.505 13.4325 -8.25 12.625 C-6.79219136 9.56360186 -5.92006527 9.41293481 -3 8 C-2.19471111 5.94999129 -2.19471111 5.94999129 -2 4 C-1.34 4 -0.68 4 0 4 C0 2.68 0 1.36 0 0 Z " fill="#5E7898" transform="translate(219,92)"/>
<path d="M0 0 C0.33 1.32 0.66 2.64 1 4 C0.34 4 -0.32 4 -1 4 C-1 4.66 -1 5.32 -1 6 C-1.66 6 -2.32 6 -3 6 C-3.268125 6.639375 -3.53625 7.27875 -3.8125 7.9375 C-5 10 -5 10 -8 11 C-8.70381157 12.98723268 -9.3711811 14.98777953 -10 17 C-10.66 17.33 -11.32 17.66 -12 18 C-12.99 17.01 -13.98 16.02 -15 15 C-14.16855469 14.25234375 -13.33710938 13.5046875 -12.48046875 12.734375 C-11.38264636 11.73976668 -10.28499933 10.74496479 -9.1875 9.75 C-8.64029297 9.25886719 -8.09308594 8.76773438 -7.52929688 8.26171875 C-4.69237675 5.68270045 -2.16715904 3.19370806 0 0 Z " fill="#E6F3FA" transform="translate(156,230)"/>
<path d="M0 0 C0.99 0.33 1.98 0.66 3 1 C3.103125 1.639375 3.20625 2.27875 3.3125 2.9375 C3.539375 3.618125 3.76625 4.29875 4 5 C4.969375 5.309375 5.93875 5.61875 6.9375 5.9375 C7.948125 6.288125 8.95875 6.63875 10 7 C11.125 9.5 11.125 9.5 12 12 C14.01735205 13.34410262 14.01735205 13.34410262 16 14 C15.67 14.99 15.34 15.98 15 17 C14.09636719 16.22914063 13.19273437 15.45828125 12.26171875 14.6640625 C11.07038333 13.65095837 9.87897317 12.63794212 8.6875 11.625 C8.09259766 11.11710938 7.49769531 10.60921875 6.88476562 10.0859375 C6.01948242 9.35117188 6.01948242 9.35117188 5.13671875 8.6015625 C4.60780029 8.15119629 4.07888184 7.70083008 3.53393555 7.23681641 C2.08837533 6.07125727 0.54505544 5.03003696 -1 4 C-0.67 2.68 -0.34 1.36 0 0 Z " fill="#E4F1F9" transform="translate(156,147)"/>
<path d="M0 0 C1 2 1 2 0.3125 4.625 C-3.89655172 15.44827586 -3.89655172 15.44827586 -7 17 C-6.67 15.68 -6.34 14.36 -6 13 C-6.66 13 -7.32 13 -8 13 C-6.40956621 7.91061189 -3.2553049 4.12543357 0 0 Z " fill="#577498" transform="translate(226,122)"/>
<path d="M0 0 C1.65 0.99 3.3 1.98 5 3 C4.34580901 8.06998019 2.1453591 12.41990777 0 17 C-0.33 17 -0.66 17 -1 17 C-1.36923077 9.49230769 -1.36923077 9.49230769 0.5 7 C0.995 6.67 1.49 6.34 2 6 C1.01 6.33 0.02 6.66 -1 7 C-0.67 4.69 -0.34 2.38 0 0 Z " fill="#E6F4FA" transform="translate(193,194)"/>
<path d="M0 0 C1.796875 0.18359375 1.796875 0.18359375 4 1 C5.703125 3.28515625 5.703125 3.28515625 7.25 6.0625 C8.03117187 7.44115234 8.03117187 7.44115234 8.828125 8.84765625 C9.21484375 9.55792969 9.6015625 10.26820313 10 11 C9.34 11 8.68 11 8 11 C7.67 11.99 7.34 12.98 7 14 C6.01 13.67 5.02 13.34 4 13 C4 9.7 4 6.4 4 3 C3.34 3 2.68 3 2 3 C2 2.34 2 1.68 2 1 C1.34 0.67 0.68 0.34 0 0 Z " fill="#5A78A3" transform="translate(101,217)"/>
<path d="M0 0 C1.98 0.495 1.98 0.495 4 1 C3.773125 1.763125 3.54625 2.52625 3.3125 3.3125 C3.209375 4.199375 3.10625 5.08625 3 6 C4.33333333 7.66666667 4.33333333 7.66666667 6 9 C6.33 9.99 6.66 10.98 7 12 C3.25 13.125 3.25 13.125 1 12 C0.33203125 10.0390625 0.33203125 10.0390625 -0.1875 7.625 C-0.36667969 6.83351562 -0.54585937 6.04203125 -0.73046875 5.2265625 C-1 3 -1 3 0 0 Z " fill="#57769B" transform="translate(187,136)"/>
<path d="M0 0 C1.32 0.66 2.64 1.32 4 2 C3.67 2.66 3.34 3.32 3 4 C3.66 4.33 4.32 4.66 5 5 C4.34 5.66 3.68 6.32 3 7 C2.67 6.01 2.34 5.02 2 4 C0.95199219 4.12568359 0.95199219 4.12568359 -0.1171875 4.25390625 C-1.02726563 4.35574219 -1.93734375 4.45757812 -2.875 4.5625 C-3.77992188 4.66691406 -4.68484375 4.77132812 -5.6171875 4.87890625 C-8 5 -8 5 -10 4 C-9.67 3.01 -9.34 2.02 -9 1 C-7.700625 1.020625 -6.40125 1.04125 -5.0625 1.0625 C-3.70834367 1.08399454 -2.35243917 1.07148199 -1 1 C-0.67 0.67 -0.34 0.34 0 0 Z " fill="#5F7FB0" transform="translate(237,80)"/>
<path d="M0 0 C0.66 0.33 1.32 0.66 2 1 C0.92130607 1.96355244 -0.16318743 2.92061417 -1.25 3.875 C-1.85328125 4.40867188 -2.4565625 4.94234375 -3.078125 5.4921875 C-6.70297417 8.33607323 -10.63785508 9.6120448 -15 11 C-15 10.01 -15 9.02 -15 8 C-14.16855469 7.59007812 -13.33710937 7.18015625 -12.48046875 6.7578125 C-11.39378906 6.21898437 -10.30710937 5.68015625 -9.1875 5.125 C-8.10855469 4.59132812 -7.02960938 4.05765625 -5.91796875 3.5078125 C-2.92161735 2.02778861 -2.92161735 2.02778861 0 0 Z " fill="#DDEDF5" transform="translate(134,165)"/>
<path d="M0 0 C5.53846154 0.61538462 5.53846154 0.61538462 7.875 2.5625 C8.431875 3.2740625 8.431875 3.2740625 9 4 C9.33 3.34 9.66 2.68 10 2 C11.32 2.99 12.64 3.98 14 5 C12.68 6.32 11.36 7.64 10 9 C8.33043913 7.69118353 6.66441696 6.37785174 5 5.0625 C4.071875 4.33160156 3.14375 3.60070312 2.1875 2.84765625 C1.465625 2.23792969 0.74375 1.62820312 0 1 C0 0.67 0 0.34 0 0 Z " fill="#E8F4F9" transform="translate(193,144)"/>
<path d="M0 0 C1.40742022 2.81484045 0.66652164 4.56936113 0.0625 7.625 C-0.13214844 8.62789062 -0.32679688 9.63078125 -0.52734375 10.6640625 C-0.68332031 11.43492188 -0.83929688 12.20578125 -1 13 C-2.32 12.34 -3.64 11.68 -5 11 C-6.32 11.99 -7.64 12.98 -9 14 C-7.65070536 10.16336928 -5.92248975 7.34827431 -3.375 4.1875 C-2.42753906 3.00220703 -2.42753906 3.00220703 -1.4609375 1.79296875 C-0.97882813 1.20128906 -0.49671875 0.60960938 0 0 Z " fill="#587093" transform="translate(240,103)"/>
<path d="M0 0 C1.32 0.66 2.64 1.32 4 2 C3.67 2.99 3.34 3.98 3 5 C-3.7281627 5.22262303 -9.53991163 4.95021536 -16 3 C-16 2.67 -16 2.34 -16 2 C-10.72 2 -5.44 2 0 2 C0 1.34 0 0.68 0 0 Z " fill="#5F7DA8" transform="translate(174,258)"/>
<path d="M0 0 C0.99 0 1.98 0 3 0 C3.33 0.66 3.66 1.32 4 2 C8.65052872 2.26932521 8.65052872 2.26932521 13 1 C13.99 1.66 14.98 2.32 16 3 C14.42085985 3.53341184 12.83645613 4.05125763 11.25 4.5625 C10.36828125 4.85253906 9.4865625 5.14257812 8.578125 5.44140625 C5.88340306 6.02526267 4.53497717 6.02288552 2 5 C0.25 2.9375 0.25 2.9375 -1 1 C-0.67 0.67 -0.34 0.34 0 0 Z " fill="#E7F5FC" transform="translate(91,202)"/>
<path d="M0 0 C3.35290069 3.21878467 6.28365713 6.69747999 9.21875 10.29296875 C11.1949534 12.18683034 12.33592328 12.58847595 15 13 C16.33333333 13.33333333 17.66666667 13.66666667 19 14 C18.34 14 17.68 14 17 14 C16.67 14.66 16.34 15.32 16 16 C13.03 15.505 13.03 15.505 10 15 C10 14.34 10 13.68 10 13 C9.01 13 8.02 13 7 13 C5.5625 10.875 5.5625 10.875 4 8 C2.9171875 6.4221875 2.9171875 6.4221875 1.8125 4.8125 C0 2 0 2 0 0 Z " fill="#58718E" transform="translate(82,194)"/>
<path d="M0 0 C0.66 0 1.32 0 2 0 C1.67 0.99 1.34 1.98 1 3 C0.01 3.33 -0.98 3.66 -2 4 C-2.66 4.66 -3.32 5.32 -4 6 C-6.6875 6.5625 -6.6875 6.5625 -10 7 C-11.27875 7.185625 -12.5575 7.37125 -13.875 7.5625 C-14.90625 7.706875 -15.9375 7.85125 -17 8 C-13.51056055 3.44855724 -9.42575497 2.7259813 -4 2 C-2.68 2 -1.36 2 0 2 C0 1.34 0 0.68 0 0 Z " fill="#5E7FAA" transform="translate(122,168)"/>
<path d="M0 0 C-1.7241302 1.29838176 -3.45453232 2.58843747 -5.1875 3.875 C-6.63189453 4.95394531 -6.63189453 4.95394531 -8.10546875 6.0546875 C-10.71128675 7.80596599 -13.04792144 8.97459794 -16 10 C-16.33 9.34 -16.66 8.68 -17 8 C-10.25 4 -10.25 4 -8 4 C-7.731875 3.360625 -7.46375 2.72125 -7.1875 2.0625 C-5.22591378 -1.34446554 -3.54735467 -1.18245156 0 0 Z " fill="#E1EFF6" transform="translate(150,225)"/>
<path d="M0 0 C1.32 1.32 2.64 2.64 4 4 C2.68 7.63 1.36 11.26 0 15 C-0.66 14.67 -1.32 14.34 -2 14 C-2.04254356 12.00045254 -2.04080783 9.99958364 -2 8 C-1.67 7.67 -1.34 7.34 -1 7 C-0.63239269 4.67182036 -0.29758419 2.3381615 0 0 Z " fill="#EAF4F9" transform="translate(188,209)"/>
<path d="M0 0 C1.98 0.66 3.96 1.32 6 2 C6.125 9.625 6.125 9.625 5 13 C4.34 13 3.68 13 3 13 C3 13.66 3 14.32 3 15 C2.34 15 1.68 15 1 15 C1.99 11.7 2.98 8.4 4 5 C3.34 4.360625 2.68 3.72125 2 3.0625 C0 1 0 1 0 0 Z " fill="#5B779A" transform="translate(194,191)"/>
<path d="M0 0 C4.95 0 9.9 0 15 0 C13.515 2.475 13.515 2.475 12 5 C10.68 5 9.36 5 8 5 C7.67 4.34 7.34 3.68 7 3 C4.6859378 2.26924352 2.35171131 1.59861742 0 1 C0 0.67 0 0.34 0 0 Z M5 3 C7 4 7 4 7 4 Z " fill="#6081AE" transform="translate(100,206)"/>
<path d="M0 0 C-3.11910856 1.79275866 -5.67682428 2.34290718 -9.25 2.625 C-10.14203125 2.69976562 -11.0340625 2.77453125 -11.953125 2.8515625 C-12.62859375 2.90054688 -13.3040625 2.94953125 -14 3 C-13.67 2.01 -13.34 1.02 -13 0 C-7.94662165 -2.08080285 -4.99821084 -2.19433647 0 0 Z " fill="#5F7698" transform="translate(100,180)"/>
<path d="M0 0 C2.475 0.99 2.475 0.99 5 2 C5 2.66 5 3.32 5 4 C5.8971875 3.6596875 5.8971875 3.6596875 6.8125 3.3125 C7.8953125 3.1578125 7.8953125 3.1578125 9 3 C10.75 4.4375 10.75 4.4375 12 6 C11.67 6.99 11.34 7.98 11 9 C7.04 6.69 3.08 4.38 -1 2 C-0.67 1.34 -0.34 0.68 0 0 Z " fill="#E6F1F8" transform="translate(146,247)"/>
<path d="M0 0 C1.65 0 3.3 0 5 0 C4.38125 0.185625 3.7625 0.37125 3.125 0.5625 C-0.09442916 2.74034913 -0.27438296 5.30594962 -1 9 C-0.67 9.66 -0.34 10.32 0 11 C-1.65 11 -3.3 11 -5 11 C-5 7 -5 7 -3.625 5.5 C-3.08875 5.005 -2.5525 4.51 -2 4 C-0.82425289 1.90010348 -0.82425289 1.90010348 0 0 Z " fill="#5B7DA7" transform="translate(142,238)"/>
<path d="M0 0 C1.75098126 2.62647188 3.38731308 5.28775382 5 8 C3.02 8.33 1.04 8.66 -1 9 C-3.125 4.375 -3.125 4.375 -2 1 C-1.34 0.67 -0.68 0.34 0 0 Z " fill="#597DB2" transform="translate(187,231)"/>
<path d="M0 0 C0.66 0 1.32 0 2 0 C1.29748724 3.16130743 0.45140033 6.09719933 -1 9 C-3.125 10.3125 -3.125 10.3125 -5 11 C-4.46968862 6.4923533 -2.74778884 3.58045212 0 0 Z " fill="#5A779D" transform="translate(195,124)"/>
<path d="M0 0 C-2.39343852 2.39343852 -4.033999 3.92393693 -7.48046875 4.1953125 C-8.37378906 4.17210937 -9.26710938 4.14890625 -10.1875 4.125 C-11.08855469 4.10695312 -11.98960938 4.08890625 -12.91796875 4.0703125 C-13.60503906 4.04710937 -14.29210937 4.02390625 -15 4 C-12.83900627 1.83900627 -11.4789582 1.28436284 -8.625 0.3125 C-7.46871094 -0.09548828 -7.46871094 -0.09548828 -6.2890625 -0.51171875 C-3.79944692 -1.04278009 -2.38446982 -0.81115526 0 0 Z " fill="#557193" transform="translate(117,203)"/>
<path d="M0 0 C6.875 3.625 6.875 3.625 8 7 C5.69 7 3.38 7 1 7 C-0.0625 5.1875 -0.0625 5.1875 -1 3 C-0.67 2.01 -0.34 1.02 0 0 Z " fill="#E8F2F8" transform="translate(169,176)"/>
<path d="M0 0 C0.99 0.33 1.98 0.66 3 1 C3 1.66 3 2.32 3 3 C3.66 3 4.32 3 5 3 C5.33 5.31 5.66 7.62 6 10 C5.01 10.66 4.02 11.32 3 12 C2.01 8.04 1.02 4.08 0 0 Z " fill="#5C7EA7" transform="translate(208,168)"/>
<path d="M0 0 C4.10110762 1.40398279 6.98089159 3.37087038 10.3125 6.125 C11.19550781 6.84945312 12.07851562 7.57390625 12.98828125 8.3203125 C13.65214844 8.87460938 14.31601563 9.42890625 15 10 C10.73025685 10 8.27521679 7.96607332 4.9375 5.4375 C3.032178 4.023874 1.14739037 2.99700267 -1 2 C-0.67 1.34 -0.34 0.68 0 0 Z " fill="#536D8B" transform="translate(173,166)"/>
<path d="M0 0 C3.21852831 0.63065757 5.50801069 1.78020695 8.25 3.5625 C8.95640625 4.01753906 9.6628125 4.47257813 10.390625 4.94140625 C11.18726562 5.46541016 11.18726562 5.46541016 12 6 C11.67 6.99 11.34 7.98 11 9 C8.03469503 7.64199529 5.70868729 6.07571737 3.25 3.9375 C2.63640625 3.41027344 2.0228125 2.88304687 1.390625 2.33984375 C0.93171875 1.89769531 0.4728125 1.45554688 0 1 C0 0.67 0 0.34 0 0 Z " fill="#DFEDF6" transform="translate(108,222)"/>
<path d="M0 0 C-1.01755741 2.66130399 -1.66684861 3.80516056 -4.1640625 5.265625 C-5.38222656 5.75289062 -5.38222656 5.75289062 -6.625 6.25 C-7.44226563 6.58515625 -8.25953125 6.9203125 -9.1015625 7.265625 C-10.04128906 7.62914062 -10.04128906 7.62914062 -11 8 C-11.66 7.34 -12.32 6.68 -13 6 C-11.21118264 4.99491199 -9.41885304 3.99607264 -7.625 3 C-6.62726563 2.443125 -5.62953125 1.88625 -4.6015625 1.3125 C-2 0 -2 0 0 0 Z " fill="#E2F0F8" transform="translate(122,207)"/>
<path d="M0 0 C-0.54226981 3.79588866 -2.20127563 5.47211993 -5 8 C-5.66 7.67 -6.32 7.34 -7 7 C-7 6.34 -7 5.68 -7 5 C-7.66 4.67 -8.32 4.34 -9 4 C-2.25 0 -2.25 0 0 0 Z " fill="#566B80" transform="translate(136,192)"/>
<path d="M0 0 C0.99 0.495 0.99 0.495 2 1 C1.01 1.495 1.01 1.495 0 2 C0 1.34 0 0.68 0 0 Z M-11 2 C-7.37 2 -3.74 2 0 2 C-0.33 2.66 -0.66 3.32 -1 4 C-1.639375 4.12375 -2.27875 4.2475 -2.9375 4.375 C-5.19851273 4.80939427 -5.19851273 4.80939427 -6.25 7.0625 C-6.4975 7.701875 -6.745 8.34125 -7 9 C-7.99 9 -8.98 9 -10 9 C-9.34 7.02 -8.68 5.04 -8 3 C-8.99 2.67 -9.98 2.34 -11 2 Z " fill="#597BA8" transform="translate(92,176)"/>
<path d="M0 0 C0.99 0.99 1.98 1.98 3 3 C-1.29 2.67 -5.58 2.34 -10 2 C-10.66 3.32 -11.32 4.64 -12 6 C-12.66 5.34 -13.32 4.68 -14 4 C-9.85241081 -0.28138239 -5.75006938 -1.19523914 0 0 Z " fill="#E4F3FA" transform="translate(171,141)"/>
<path d="M0 0 C0.33 1.32 0.66 2.64 1 4 C0.01 4.66 -0.98 5.32 -2 6 C-2.309375 6.61875 -2.61875 7.2375 -2.9375 7.875 C-4.21963257 10.43926514 -5.91672775 12.05561256 -8 14 C-8.66 13.67 -9.32 13.34 -10 13 C-5.05 6.565 -5.05 6.565 0 0 Z " fill="#E2F1FA" transform="translate(223,93)"/>
<path d="M0 0 C0.66 0.33 1.32 0.66 2 1 C1.8864371 2.64666203 1.75882619 4.29236082 1.625 5.9375 C1.52058594 7.31228516 1.52058594 7.31228516 1.4140625 8.71484375 C1.27742187 9.46894531 1.14078125 10.22304687 1 11 C0.01 11.495 0.01 11.495 -1 12 C-1.92470553 7.28400182 -2.22923777 4.32734391 0 0 Z " fill="#5E7A9D" transform="translate(184,235)"/>
<path d="M0 0 C4.71403788 0.47939368 8.66579301 0.96834048 13 3 C11 5 11 5 8.75 5.375 C5.06548093 4.87256558 2.91653028 3.23826742 0 1 C0 0.67 0 0.34 0 0 Z " fill="#E4F3FA" transform="translate(120,232)"/>
<path d="M0 0 C1.32 0.66 2.64 1.32 4 2 C4 2.99 4 3.98 4 5 C3.01 4.67 2.02 4.34 1 4 C0.34 5.65 -0.32 7.3 -1 9 C-1.66 8.34 -2.32 7.68 -3 7 C-2.01 4.69 -1.02 2.38 0 0 Z " fill="#6281A9" transform="translate(202,112)"/>
<path d="M0 0 C0.66 0.99 1.32 1.98 2 3 C1.34 3 0.68 3 0 3 C-0.061875 3.7425 -0.12375 4.485 -0.1875 5.25 C-1.24185138 8.8185739 -2.99909773 9.92245228 -6 12 C-6 8.36804504 -5.04546845 7.25286089 -3 4.3125 C-2.443125 3.50425781 -1.88625 2.69601563 -1.3125 1.86328125 C-0.879375 1.24839844 -0.44625 0.63351563 0 0 Z " fill="#E6F1F9" transform="translate(212,107)"/>
<path d="M0 0 C-3.3 2.31 -6.6 4.62 -10 7 C-10.66 6.67 -11.32 6.34 -12 6 C-11.360625 5.38125 -10.72125 4.7625 -10.0625 4.125 C-7.96116416 2.17402388 -7.96116416 2.17402388 -7 0 C-2.52459016 -1.26229508 -2.52459016 -1.26229508 0 0 Z " fill="#546F92" transform="translate(144,159)"/>
<path d="M0 0 C0.33 0 0.66 0 1 0 C1 1.98 1 3.96 1 6 C0.01 6.33 -0.98 6.66 -2 7 C-2.33 7.66 -2.66 8.32 -3 9 C-3.99 8.67 -4.98 8.34 -6 8 C-5.02471263 6.66382648 -4.04466681 5.3311249 -3.0625 4 C-2.24458984 2.88625 -2.24458984 2.88625 -1.41015625 1.75 C-0.94480469 1.1725 -0.47945312 0.595 0 0 Z " fill="#587190" transform="translate(216,136)"/>
<path d="M0 0 C0.99 0.33 1.98 0.66 3 1 C1.5140084 5.59306496 -0.85014682 8.43569245 -4 12 C-4 8.79604584 -3.25664978 6.90600261 -2 4 C-1.34 4 -0.68 4 0 4 C0 2.68 0 1.36 0 0 Z " fill="#576F91" transform="translate(219,92)"/>
<path d="M0 0 C1.65 0 3.3 0 5 0 C4.67 1.65 4.34 3.3 4 5 C2.02 5.33 0.04 5.66 -2 6 C-2 5.01 -2 4.02 -2 3 C-1.34 3 -0.68 3 0 3 C0 2.01 0 1.02 0 0 Z " fill="#607D9E" transform="translate(126,196)"/>
<path d="M0 0 C1.31625194 2.63250388 0.74813658 3.80179056 0.0625 6.625 C-0.13214844 7.44226563 -0.32679688 8.25953125 -0.52734375 9.1015625 C-0.68332031 9.72804687 -0.83929688 10.35453125 -1 11 C-1.99 10.34 -2.98 9.68 -4 9 C-3.46930939 5.17902761 -2.50298434 2.93828597 0 0 Z " fill="#DEF1F8" transform="translate(193,133)"/>
<path d="M0 0 C0.33 0.66 0.66 1.32 1 2 C4.02934491 2.65772428 4.02934491 2.65772428 7 3 C6.67 3.99 6.34 4.98 6 6 C4.9790625 5.7834375 4.9790625 5.7834375 3.9375 5.5625 C0.63726918 4.93054091 -2.67144426 4.45686059 -6 4 C-6 3.67 -6 3.34 -6 3 C-4.35 3 -2.7 3 -1 3 C-0.67 2.01 -0.34 1.02 0 0 Z " fill="#6683A6" transform="translate(170,137)"/>
<path d="M0 0 C3.2826932 1.49076434 5.93077441 3.38620321 8.75 5.625 C9.94882813 6.57246094 9.94882813 6.57246094 11.171875 7.5390625 C11.77515625 8.02117187 12.3784375 8.50328125 13 9 C12.01 9.33 11.02 9.66 10 10 C9.236875 9.195625 8.47375 8.39125 7.6875 7.5625 C5.20569102 4.83200976 5.20569102 4.83200976 2 4 C0.8125 1.9375 0.8125 1.9375 0 0 Z " fill="#546D89" transform="translate(158,154)"/>
<path d="M0 0 C-1.78614318 1.03046722 -3.57910018 2.04913236 -5.375 3.0625 C-6.87160156 3.91521484 -6.87160156 3.91521484 -8.3984375 4.78515625 C-9.25695312 5.18605469 -10.11546875 5.58695313 -11 6 C-11.66 5.67 -12.32 5.34 -13 5 C-12.38125 4.731875 -11.7625 4.46375 -11.125 4.1875 C-8.7004767 3.04443152 -8.7004767 3.04443152 -7 0 C-2.625 -1.3125 -2.625 -1.3125 0 0 Z " fill="#506F8C" transform="translate(132,167)"/>
<path d="M0 0 C0.66 0.33 1.32 0.66 2 1 C1.67 2.65 1.34 4.3 1 6 C-0.65 6 -2.3 6 -4 6 C-3.67 4.35 -3.34 2.7 -3 1 C-2.01 0.67 -1.02 0.34 0 0 Z " fill="#5E7BA3" transform="translate(212,144)"/>
<path d="M0 0 C1.32 0.66 2.64 1.32 4 2 C3.0625 3.9375 3.0625 3.9375 1 6 C-1.9858081 6.66174825 -4.94861869 6.87205948 -8 7 C-4.91190305 5.23537317 -3.76687864 5 0 5 C0 3.35 0 1.7 0 0 Z " fill="#E6F5FB" transform="translate(176,252)"/>
<path d="M0 0 C0.33 0.99 0.66 1.98 1 3 C0.34 3.66 -0.32 4.32 -1 5 C-0.67 5.66 -0.34 6.32 0 7 C-0.99 8.485 -0.99 8.485 -2 10 C-4 9 -4 9 -5 7 C-3.35 4.69 -1.7 2.38 0 0 Z " fill="#E7F2FA" transform="translate(199,125)"/>
<path d="M0 0 C-0.33 0.66 -0.66 1.32 -1 2 C-2.8125 2.5625 -2.8125 2.5625 -5 3 C-6.11375 3.2784375 -6.11375 3.2784375 -7.25 3.5625 C-7.8275 3.706875 -8.405 3.85125 -9 4 C-9 3.01 -9 2.02 -9 1 C-5.57367167 -0.61798838 -3.61944899 -1.34053666 0 0 Z " fill="#E6F4F9" transform="translate(128,172)"/>
<path d="M0 0 C3.79450934 0.39253545 5.51015791 2.24338912 8 5 C5.75 5.25 5.75 5.25 3 5 C0.6875 3 0.6875 3 -1 1 C-0.67 0.67 -0.34 0.34 0 0 Z " fill="#E8F2F8" transform="translate(186,154)"/>
<path d="M0 0 C3.36591866 1.44253657 5.51047079 3.33264727 8 6 C5.69 5.67 3.38 5.34 1 5 C0.67 3.35 0.34 1.7 0 0 Z " fill="#E1EFF7" transform="translate(161,170)"/>
<path d="M0 0 C0.99 0.33 1.98 0.66 3 1 C2.60196439 3.88575819 2.20990931 4.82189513 -0.0625 6.75 C-0.701875 7.1625 -1.34125 7.575 -2 8 C-2 7.34 -2 6.68 -2 6 C-2.66 5.67 -3.32 5.34 -4 5 C-2.35 4.67 -0.7 4.34 1 4 C0.67 2.68 0.34 1.36 0 0 Z " fill="#5B779B" transform="translate(151,230)"/>
<path d="M0 0 C2.31 1.65 4.62 3.3 7 5 C6.01 6.485 6.01 6.485 5 8 C4.731875 7.360625 4.46375 6.72125 4.1875 6.0625 C3.11332248 3.66868314 3.11332248 3.66868314 0 3 C0 2.01 0 1.02 0 0 Z " fill="#E8F1F6" transform="translate(185,188)"/>
<path d="M0 0 C0.66 0.33 1.32 0.66 2 1 C1.34 2.65 0.68 4.3 0 6 C-2.97 5.505 -2.97 5.505 -6 5 C-5.195625 4.360625 -4.39125 3.72125 -3.5625 3.0625 C-1.7249496 1.59396498 -1.7249496 1.59396498 0 0 Z " fill="#E3F1F6" transform="translate(143,159)"/>
<path d="M0 0 C0.66 0 1.32 0 2 0 C1.375 1.9375 1.375 1.9375 0 4 C-3.125 4.75 -3.125 4.75 -6 5 C-5.67 4.01 -5.34 3.02 -5 2 C-3.02 2.495 -3.02 2.495 -1 3 C-0.67 2.01 -0.34 1.02 0 0 Z " fill="#5777A1" transform="translate(234,116)"/>
<path d="M0 0 C0.33 0 0.66 0 1 0 C1.36923077 7.50769231 1.36923077 7.50769231 -0.5 10 C-0.995 10.33 -1.49 10.66 -2 11 C-1.814375 10.071875 -1.62875 9.14375 -1.4375 8.1875 C-0.75876119 4.98656229 -0.75876119 4.98656229 -2 2 C-1.34 2 -0.68 2 0 2 C0 1.34 0 0.68 0 0 Z " fill="#DAEDF4" transform="translate(242,92)"/>
<path d="M0 0 C0.33 1.32 0.66 2.64 1 4 C-0.65 4.66 -2.3 5.32 -4 6 C-4 5.01 -4 4.02 -4 3 C-2 1.3125 -2 1.3125 0 0 Z " fill="#E5F1F7" transform="translate(127,202)"/>
<path d="M0 0 C-6.75 4 -6.75 4 -9 4 C-8 1 -8 1 -6.1875 -0.25 C-3.66056586 -1.11637742 -2.47778006 -0.88492145 0 0 Z " fill="#E1ECF6" transform="translate(126,197)"/>
<path d="M0 0 C-1.32 1.32 -2.64 2.64 -4 4 C-4.99 3.01 -5.98 2.02 -7 1 C-3.375 -1.125 -3.375 -1.125 0 0 Z " fill="#D6E9F3" transform="translate(207,149)"/>
<path d="M0 0 C1.32 0.66 2.64 1.32 4 2 C3.67 2.66 3.34 3.32 3 4 C3.66 4.33 4.32 4.66 5 5 C4.34 5.66 3.68 6.32 3 7 C2.67 5.68 2.34 4.36 2 3 C1.01 3 0.02 3 -1 3 C-0.67 2.01 -0.34 1.02 0 0 Z " fill="#577BAB" transform="translate(237,80)"/>
<path d="M0 0 C0.99 0.99 1.98 1.98 3 3 C2.01 3.495 2.01 3.495 1 4 C0.34786708 6.02463255 0.34786708 6.02463255 0 8 C-0.66 8 -1.32 8 -2 8 C-2 7.34 -2 6.68 -2 6 C-1.34 6 -0.68 6 0 6 C-0.2784375 5.071875 -0.2784375 5.071875 -0.5625 4.125 C-1 2 -1 2 0 0 Z " fill="#597BAA" transform="translate(181,254)"/>
<path d="M0 0 C2.32590854 3.63423209 2.16265833 6.77088331 2 11 C0.4375 10 0.4375 10 -1 8 C-0.96726452 5.23385218 -0.49404328 2.73969453 0 0 Z " fill="#5B8BC2" transform="translate(1,249)"/>
<path d="M0 0 C0.66 0.99 1.32 1.98 2 3 C1.67 3.66 1.34 4.32 1 5 C-0.32 4.67 -1.64 4.34 -3 4 C-2.67 3.01 -2.34 2.02 -2 1 C-1.34 0.67 -0.68 0.34 0 0 Z " fill="#6385AC" transform="translate(187,231)"/>
<path d="M0 0 C1.7074998 1.28062485 3.37373596 2.61767557 5 4 C5 4.66 5 5.32 5 6 C3.68 5.67 2.36 5.34 1 5 C0.67 3.35 0.34 1.7 0 0 Z " fill="#5D7DA7" transform="translate(84,200)"/>
<path d="M0 0 C3.81684226 1.55500981 6.19195732 4.03595495 9 7 C5.21616321 6.07506212 3.43306306 5.60628829 1.125 2.375 C0.75375 1.59125 0.3825 0.8075 0 0 Z " fill="#516B83" transform="translate(192,145)"/>
<path d="M0 0 C2.0625 0.4375 2.0625 0.4375 4 1 C3.01 2.98 2.02 4.96 1 7 C0.67 7 0.34 7 0 7 C-0.38133299 5.0085944 -0.71325582 3.00720923 -1 1 C-0.67 0.67 -0.34 0.34 0 0 Z " fill="#607EA4" transform="translate(217,134)"/>
<path d="M0 0 C0 3 0 3 -1 6 C-2.65 6 -4.3 6 -6 6 C-2.25 1.125 -2.25 1.125 0 0 Z " fill="#E1F1F8" transform="translate(230,86)"/>
</svg>
